<svg width="280" height="280" viewBox="0 0 280 280" fill="none" xmlns="http://www.w3.org/2000/svg">
<rect width="280" height="280" rx="52.5" fill="#06C167"/>
<g clip-path="url(#clip0_106_11)">
<path d="M90.7812 52.5C72.6578 52.5 57.9688 69.6391 57.9688 90.7812C57.9688 108.883 68.7422 124.053 83.2125 128.034L77.7766 216.584C77.4047 222.589 82.0312 227.5 88.0469 227.5H93.5156C99.5312 227.5 104.147 222.589 103.786 216.584L98.35 128.034C112.82 124.042 123.594 108.883 123.594 90.7812C123.594 69.6391 108.905 52.5 90.7812 52.5ZM201.064 52.5L191.953 107.188H185.117L180.556 52.5H175.995L171.434 107.188H164.598L155.487 52.5H150.927V123.594C150.927 126.613 153.377 129.062 156.395 129.062H170.636L165.266 216.584C164.894 222.589 169.52 227.5 175.536 227.5H181.005C187.02 227.5 191.636 222.589 191.275 216.584L185.905 129.062H200.145C203.164 129.062 205.614 126.613 205.614 123.594V52.5H201.053H201.064Z" fill="#202124"/>
</g>
<defs>
<clipPath id="clip0_106_11">
<rect width="175" height="175" fill="white" transform="translate(52.5 52.5)"/>
</clipPath>
</defs>
</svg>
